{
 "accessors": [
  {
   "componentType": 5126,
   "type": "VEC3",
   "count": 55678,
   "max": [
    26.867900848388672,
    4.774464130401611,
    15.03361988067627
   ],
   "min": [
    -22.642040252685547,
    -0.3799999952316284,
    -19.911270141601562
   ],
   "bufferView": 1
  },
  {
   "componentType": 5126,
   "type": "VEC3",
   "count": 55678,
   "bufferView": 2
  },
  {
   "componentType": 5126,
   "type": "VEC2",
   "count": 55678,
   "bufferView": 3
  },
  {
   "componentType": 5123,
   "type": "SCALAR",
   "count": 100506,
   "bufferView": 4
  }
 ],
 "asset": {
  "version": "2.0",
  "generator": "clara.io"
 },
 "bufferViews": [
  {
   "buffer": 0,
   "byteOffset": 0,
   "byteLength": 60906
  },
  {
   "buffer": 0,
   "byteOffset": 60908,
   "byteLength": 668136,
   "target": 34962,
   "byteStride": 12
  },
  {
   "buffer": 0,
   "byteOffset": 729044,
   "byteLength": 668136,
   "target": 34962,
   "byteStride": 12
  },
  {
   "buffer": 0,
   "byteOffset": 1397180,
   "byteLength": 445424,
   "target": 34962,
   "byteStride": 8
  },
  {
   "buffer": 0,
   "byteOffset": 1842604,
   "byteLength": 201012,
   "target": 34963
  }
 ],
 "buffers": [
  {
   "byteLength": 2043616,
   "uri": "data:application/octet-stream;base64,"
  }
 ],
 "images": [
  {
   "name": "SimpleOffice_Texture.png",
   "bufferView": 0,
   "mimeType": "image/png"
  }
 ],
 "materials": [
  {
   "name": "SimpleOfficeInteriors",
   "pbrMetallicRoughness": {
    "baseColorTexture": {
     "index": 0,
     "texCoord": 0
    },
    "roughnessFactor": 0.1961,
    "metallicFactor": 0
   },
   "doubleSided": true
  }
 ],
 "meshes": [
  {
   "primitives": [
    {
     "indices": 3,
     "material": 0,
     "mode": 4,
     "attributes": {
      "POSITION": 0,
      "NORMAL": 1,
      "TEXCOORD_0": 2
     }
    }
   ]
  }
 ],
 "nodes": [
  {
   "name": "office",
   "children": [
    1
   ]
  },
  {
   "name": "office.obj_1",
   "mesh": 0
  }
 ],
 "samplers": [
  {
   "magFilter": 9729,
   "minFilter": 9987,
   "wrapS": 10497,
   "wrapT": 10497
  }
 ],
 "scene": 0,
 "scenes": [
  {
   "nodes": [
    0
   ]
  }
 ],
 "textures": [
  {
   "sampler": 0,
   "source": 0
  }
 ]
}